<?xml version="1.0" encoding="UTF-8" standalone="no"?>
<!-- Created with Inkscape (http://www.inkscape.org/) -->

<svg
   xmlns:dc="http://purl.org/dc/elements/1.1/"
   xmlns:cc="http://creativecommons.org/ns#"
   xmlns:rdf="http://www.w3.org/1999/02/22-rdf-syntax-ns#"
   xmlns:svg="http://www.w3.org/2000/svg"
   xmlns="http://www.w3.org/2000/svg"
   xmlns:sodipodi="http://sodipodi.sourceforge.net/DTD/sodipodi-0.dtd"
   xmlns:inkscape="http://www.inkscape.org/namespaces/inkscape"
   width="190mm"
   height="200mm"
   viewBox="0 0 190 200"
   version="1.1"
   id="svg4904"
   inkscape:version="0.92.3 (d244b95, 2018-08-02)"
   sodipodi:docname="favicon.svg">
  <defs
     id="defs4898" />
  <sodipodi:namedview
     id="base"
     pagecolor="#ffffff"
     bordercolor="#666666"
     borderopacity="1.0"
     inkscape:pageopacity="0.0"
     inkscape:pageshadow="2"
     inkscape:zoom="1.4"
     inkscape:cx="334.17512"
     inkscape:cy="497.703"
     inkscape:document-units="mm"
     inkscape:current-layer="layer1"
     showgrid="false"
     inkscape:window-width="1920"
     inkscape:window-height="1001"
     inkscape:window-x="0"
     inkscape:window-y="24"
     inkscape:window-maximized="1" />
  <metadata
     id="metadata4901">
    <rdf:RDF>
      <cc:Work
         rdf:about="">
        <dc:format>image/svg+xml</dc:format>
        <dc:type
           rdf:resource="http://purl.org/dc/dcmitype/StillImage" />
        <dc:title></dc:title>
      </cc:Work>
    </rdf:RDF>
  </metadata>
  <g
     inkscape:label="Capa 1"
     inkscape:groupmode="layer"
     id="layer1"
     transform="translate(0,-97)">
    <g
       id="g5610"
       transform="matrix(0.77698768,0,0,0.77698768,3.1472459,137.26189)">
	<g
   id="g5608">
		<path
   id="path5606"
   d="m 175.455,0 h -38.302 c 0,20.185 -12.116,37.512 -29.458,45.188 V 0 H 67.759 V 45.188 C 50.417,37.514 38.299,20.185 38.299,0 H 0 C 0,35.012 20.519,65.226 50.183,79.298 H 0 v 39.937 H 50.206 C 20.529,133.301 0,163.517 0,198.541 l 38.299,0.004 c 0,-20.186 12.118,-37.52 29.46,-45.197 v 45.197 h 39.937 v -45.193 c 17.342,7.676 29.458,25.008 29.458,45.193 l 38.302,-0.004 c 0,-35.024 -20.53,-65.24 -50.205,-79.306 h 50.205 V 79.298 h -50.18 C 154.937,65.226 175.455,35.012 175.455,0 Z"
   inkscape:connector-curvature="0"
   style="fill:#76757a" />

	</g>

</g>
    <g
       id="g5604"
       transform="matrix(-0.18323327,-0.07713783,-0.07713783,0.18323327,212.71516,106.18224)">
      <g
         id="g5547">
	<path
   id="path5543"
   d="m 395.904,475.016 -236.203,-72.7 v 71.524 49.896 c 0,56.133 105.787,101.644 236.274,101.644 130.48,0 236.285,-45.511 236.285,-101.644 0,-0.442 -0.145,-0.886 -0.154,-1.318 V 402.316 Z"
   inkscape:connector-curvature="0"
   style="fill:#c76d2b" />

	<path
   id="path5545"
   d="m 0,318.734 84.383,30.185 7.191,-15.401 31,-2.635 4.42,4.599 -26.601,6.308 -3.877,11.475 c -0.007,0 -60.087,125.604 -51.263,187.05 0,0 37.502,22.37 74.988,0 l 9.962,-168 v -13.984 l 55.8,-12.588 -3.941,9.705 -41.604,13.529 19.242,6.874 236.203,72.7 236.201,-72.7 159.699,-57.116 -395.9,-152.313 z"
   inkscape:connector-curvature="0"
   style="fill:#c76d2b" />

</g>
      <g
         id="g5549">
</g>
      <g
         id="g5551">
</g>
      <g
         id="g5553">
</g>
      <g
         id="g5555">
</g>
      <g
         id="g5557">
</g>
      <g
         id="g5559">
</g>
      <g
         id="g5561">
</g>
      <g
         id="g5563">
</g>
      <g
         id="g5565">
</g>
      <g
         id="g5567">
</g>
      <g
         id="g5569">
</g>
      <g
         id="g5571">
</g>
      <g
         id="g5573">
</g>
      <g
         id="g5575">
</g>
      <g
         id="g5577">
</g>
    </g>
  </g>
</svg>
